<svg xmlns="http://www.w3.org/2000/svg" xmlns:xlink="http://www.w3.org/1999/xlink" width="755" zoomAndPan="magnify" viewBox="0 0 567 113.249998" height="151" preserveAspectRatio="xMidYMid meet" version="1.0"><defs><g/></defs><g fill="#000000" fill-opacity="1"><g transform="translate(18.876333, 80.941842)"><g><path d="M 18.734375 1.234375 L 16.71875 1 L 15.71875 1.078125 L 15.171875 1 L 14.484375 0.921875 L 12.703125 0.390625 L 12.078125 0.3125 L 10.921875 0 L 10.375 -0.3125 L 9.296875 -1 L 7.890625 -2.171875 L 6.8125 -3.40625 L 6.578125 -3.796875 L 6.1875 -4.1875 L 5.96875 -4.640625 L 5.578125 -5.1875 L 4.953125 -6.1875 L 4.953125 -6.65625 L 4.71875 -7.203125 L 4.640625 -7.671875 L 4.484375 -8.046875 L 4.328125 -8.515625 L 4.265625 -9.0625 L 4.109375 -9.515625 L 4.03125 -10.609375 L 3.953125 -11.078125 L 3.71875 -12.625 L 3.875 -13.15625 L 3.875 -14.625 L 4.109375 -15.40625 L 4.03125 -16.03125 L 4.03125 -16.5625 L 4.1875 -18.265625 L 4.484375 -19.359375 L 4.484375 -19.96875 L 4.640625 -21.0625 L 4.640625 -21.59375 L 4.953125 -22.6875 L 4.796875 -23.078125 L 4.953125 -24.078125 L 5.109375 -24.625 L 5.34375 -26.015625 L 5.578125 -26.9375 L 5.578125 -27.953125 L 5.8125 -28.875 L 5.8125 -29.421875 L 6.03125 -29.890625 L 6.1875 -30.421875 L 6.1875 -30.890625 L 6.34375 -31.4375 L 6.265625 -31.890625 L 6.734375 -32.671875 L 6.890625 -33.21875 L 6.890625 -34.296875 L 7.046875 -35.234375 L 7.28125 -35.765625 L 7.359375 -36.234375 L 7.515625 -37.3125 L 7.8125 -39.25 L 8.203125 -39.796875 L 8.359375 -40.796875 L 8.828125 -41.8125 L 9.0625 -42.34375 L 9.375 -43.28125 L 9.75 -44.359375 L 10.21875 -45.296875 L 10.53125 -45.828125 L 11.21875 -46.84375 L 11.296875 -47.375 L 11.609375 -47.84375 L 12.234375 -48.859375 L 12.859375 -49.78125 L 13.390625 -50.171875 L 13.78125 -50.640625 L 14.859375 -51.796875 L 15.875 -52.484375 L 16.484375 -52.71875 L 17.03125 -53.109375 L 17.96875 -53.65625 L 18.890625 -54.125 L 20.046875 -54.421875 L 20.515625 -54.5 L 21.671875 -54.8125 L 22.453125 -54.890625 L 23.84375 -55.125 L 24.9375 -55.203125 L 25.859375 -55.28125 L 27.25 -55.203125 L 27.71875 -55.125 L 28.5625 -55.046875 L 29.8125 -54.890625 L 30.421875 -54.65625 L 31.046875 -54.578125 L 31.515625 -54.421875 L 32.671875 -53.890625 L 34.0625 -52.953125 L 34.6875 -52.5625 L 35.078125 -52.109375 L 35.921875 -51.40625 L 36.78125 -50.640625 L 37.15625 -50.171875 L 37.390625 -49.625 L 37.859375 -48.625 L 38.09375 -48.15625 L 38.25 -47.6875 L 38.40625 -47.15625 L 38.640625 -45.984375 L 38.78125 -44.515625 L 38.859375 -43.890625 L 38.859375 -43.359375 L 38.78125 -42.34375 L 38.71875 -41.890625 L 38.78125 -40.875 L 38.78125 -40.34375 L 38.71875 -39.328125 L 38.5625 -38.78125 L 38.484375 -38.328125 L 38.5625 -37.78125 L 38.5625 -37 L 38.484375 -36.546875 L 38.328125 -35.453125 L 38.25 -34.296875 L 38.171875 -33.0625 L 38.015625 -32.515625 L 37.859375 -31.28125 L 37.9375 -30.5 L 37.546875 -29.65625 L 37.625 -28.71875 L 37.3125 -27.71875 L 37.15625 -26.703125 L 36.9375 -25.703125 L 36.859375 -24.78125 L 36.625 -23.765625 L 36.390625 -23.296875 L 36.15625 -21.90625 L 36.15625 -21.21875 L 36 -20.671875 L 35.84375 -19.59375 L 35.609375 -19.125 L 34.84375 -16.40625 L 34.921875 -15.953125 L 34.53125 -15.015625 L 34.296875 -14.5625 L 34.21875 -13.703125 L 33.828125 -12.859375 L 33.59375 -11.921875 L 33.59375 -11.375 L 33.375 -10.53125 L 32.984375 -9.984375 L 32.90625 -9.21875 L 32.359375 -8.125 L 31.75 -6.734375 L 31.359375 -6.1875 L 30.65625 -5.1875 L 30.34375 -4.71875 L 29.96875 -4.265625 L 29.8125 -3.796875 L 28.875 -2.859375 L 28.40625 -2.484375 L 28.03125 -2.015625 L 27.09375 -1.3125 L 26.171875 -0.703125 L 25.859375 -0.46875 L 24.078125 0.234375 L 23.53125 0.3125 L 22.921875 0.46875 L 21.828125 0.703125 L 21.296875 0.78125 L 20.4375 1 Z M 18.109375 -9.296875 L 19.125 -9.296875 L 20.203125 -9.59375 L 20.90625 -9.90625 L 21.984375 -10.6875 L 22.53125 -11.765625 L 23 -12.859375 L 23.15625 -13.390625 L 23.15625 -14.015625 L 23.375 -15.171875 L 23.53125 -15.71875 L 23.6875 -16.796875 L 23.921875 -17.421875 L 24 -18.5 L 24.234375 -19.046875 L 24.46875 -20.046875 L 24.546875 -20.671875 L 24.78125 -21.140625 L 24.78125 -21.75 L 24.703125 -21.984375 L 24.9375 -22.6875 L 25.15625 -23.84375 L 25.3125 -25.625 L 25.546875 -26.328125 L 25.78125 -26.9375 L 25.9375 -28.40625 L 26.171875 -28.875 L 26.09375 -30.1875 L 26.40625 -31.359375 L 26.5625 -32.28125 L 26.703125 -32.90625 L 26.859375 -33.453125 L 26.78125 -33.984375 L 26.859375 -35 L 27.015625 -35.609375 L 27.25 -36.703125 L 27.40625 -37.390625 L 27.40625 -38.40625 L 27.5625 -39.796875 L 27.640625 -40.796875 L 27.796875 -41.890625 L 27.484375 -43.4375 L 27.171875 -43.890625 L 26.640625 -44.59375 L 25.390625 -45.140625 L 23.921875 -45.0625 L 23.296875 -44.90625 L 22.0625 -44.4375 L 21.296875 -43.75 L 20.75 -42.890625 L 20.4375 -41.96875 L 20.125 -41.421875 L 19.671875 -40.421875 L 19.515625 -39.875 L 19.359375 -39.25 L 18.890625 -37.625 L 18.890625 -37.46875 L 18.8125 -36.859375 L 18.578125 -35.765625 L 18.5 -35.296875 L 18.1875 -34.21875 L 17.96875 -33.140625 L 17.734375 -31.890625 L 17.65625 -31.359375 L 17.5 -30.8125 L 17.34375 -29.65625 L 17.109375 -29.03125 L 16.796875 -27.796875 L 16.640625 -27.25 L 16.484375 -26.171875 L 16.484375 -25.625 L 16.40625 -25.078125 L 16.484375 -24.46875 L 16.265625 -23.921875 L 15.875 -22.84375 L 15.953125 -22.21875 L 15.796875 -21.671875 L 15.875 -21.375 L 15.71875 -20.671875 L 15.71875 -20.046875 L 15.5625 -19.515625 L 15.5625 -18.890625 L 15.328125 -17.734375 L 15.328125 -17.1875 L 15.09375 -16.640625 L 15.328125 -16.109375 L 15.25 -15.171875 L 14.9375 -14.40625 L 15.171875 -13.859375 L 15.171875 -11.6875 L 15.40625 -11.15625 L 15.5625 -10.84375 L 16.03125 -10.140625 L 16.40625 -9.75 L 17.03125 -9.515625 L 17.65625 -9.375 Z M 18.109375 -9.296875 "/></g></g></g><g fill="#000000" fill-opacity="1"><g transform="translate(56.425002, 80.941842)"><g><path d="M 3.953125 0.15625 L 2.78125 0 L 2.40625 -0.921875 L 2.5625 -1.546875 L 2.5625 -2.78125 L 2.703125 -4.03125 L 3.015625 -5.109375 L 3.09375 -5.65625 L 3.328125 -6.734375 L 3.484375 -7.125 L 3.71875 -8.203125 L 3.875 -8.90625 L 4.109375 -10.140625 L 4.109375 -10.6875 L 4.265625 -11.296875 L 4.265625 -12.3125 L 4.5625 -12.859375 L 4.640625 -13.78125 L 4.71875 -14.328125 L 4.953125 -15.25 L 5.03125 -15.71875 L 4.953125 -16.265625 L 5.109375 -17.265625 L 5.421875 -18.5 L 5.578125 -19.4375 L 5.734375 -20.125 L 5.96875 -20.984375 L 6.109375 -21.90625 L 6.1875 -22.453125 L 6.34375 -22.921875 L 6.421875 -23.921875 L 6.5 -24.390625 L 6.5 -24.859375 L 6.890625 -25.78125 L 6.96875 -26.25 L 7.046875 -26.78125 L 7.125 -27.875 L 7.203125 -28.640625 L 7.59375 -29.578125 L 7.75 -30.1875 L 7.890625 -30.96875 L 7.890625 -32.046875 L 7.96875 -32.671875 L 8.203125 -33.296875 L 8.203125 -33.90625 L 8.4375 -34.453125 L 8.4375 -35 L 8.59375 -35.53125 L 8.75 -36.546875 L 8.984375 -37.390625 L 9.21875 -38.09375 L 9.21875 -39.015625 L 9.296875 -39.5625 L 9.453125 -40.03125 L 9.828125 -42.1875 L 9.828125 -42.734375 L 10.140625 -43.4375 L 10.296875 -44.125 L 10.375 -45.140625 L 10.453125 -45.671875 L 10.53125 -46.140625 L 10.609375 -46.6875 L 10.765625 -47.15625 L 10.84375 -47.6875 L 11 -48.703125 L 11.15625 -49.625 L 11.375 -50.640625 L 11.375 -51.25 L 11.609375 -52.265625 L 11.765625 -52.71875 L 12 -53.109375 L 12.46875 -53.96875 L 13.234375 -54.125 L 14.328125 -54.203125 L 15.640625 -54.125 L 16.34375 -54.125 L 17.34375 -54.203125 L 18.8125 -54.125 L 19.75 -54.203125 L 20.90625 -54.125 L 21.984375 -54.125 L 22.84375 -53.890625 L 23.296875 -53.1875 L 23.375 -52.640625 L 23.6875 -51.875 L 23.84375 -50.9375 L 23.921875 -50.09375 L 24.234375 -49.015625 L 24.546875 -47.15625 L 24.78125 -45.90625 L 25 -44.59375 L 25.234375 -43.515625 L 25.546875 -41.96875 L 25.703125 -41.34375 L 25.78125 -40.796875 L 25.9375 -39.640625 L 26.171875 -38.640625 L 26.171875 -38.171875 L 26.40625 -37.3125 L 26.40625 -36.78125 L 26.484375 -35.921875 L 26.703125 -34.765625 L 26.859375 -33.453125 L 27.09375 -32.125 L 27.171875 -30.890625 L 27.328125 -29.8125 L 27.484375 -29.1875 L 27.71875 -27.09375 L 28.03125 -25.3125 L 28.1875 -23.609375 L 28.1875 -23.078125 L 28.34375 -22.53125 L 28.484375 -21.59375 L 28.71875 -19.515625 L 28.953125 -17.8125 L 29.1875 -17.8125 L 29.265625 -19.359375 L 29.421875 -21.21875 L 29.421875 -22.296875 L 29.65625 -26.015625 L 29.890625 -27.640625 L 29.890625 -30.265625 L 30.109375 -31.359375 L 30.1875 -31.828125 L 30.265625 -32.359375 L 30.34375 -32.984375 L 30.421875 -34.0625 L 30.578125 -34.53125 L 30.734375 -35.609375 L 30.734375 -36.078125 L 31.046875 -37.078125 L 31.046875 -38.015625 L 31.125 -38.9375 L 31.125 -39.484375 L 31.59375 -40.421875 L 31.515625 -40.953125 L 31.75 -42.34375 L 31.75 -42.8125 L 31.96875 -43.828125 L 32.046875 -44.359375 L 32.203125 -44.828125 L 32.359375 -45.90625 L 32.4375 -46.53125 L 32.671875 -47.609375 L 32.828125 -48.15625 L 33.0625 -48.78125 L 33.0625 -49.46875 L 33.140625 -49.9375 L 33.375 -51.171875 L 33.671875 -52.796875 L 34.296875 -53.890625 L 34.609375 -54.125 L 36.078125 -54.421875 L 37.703125 -54.265625 L 38.25 -54.34375 L 39.015625 -54.34375 L 40.796875 -54.265625 L 41.578125 -54.265625 L 42.65625 -54.34375 L 43.75 -54.125 L 44.203125 -53.890625 L 44.28125 -53.265625 L 44.28125 -52.640625 L 44.046875 -51.5625 L 44.125 -50.9375 L 43.890625 -49.234375 L 43.75 -48.15625 L 43.28125 -46.296875 L 43.046875 -45.453125 L 42.8125 -44.046875 L 42.65625 -43.4375 L 42.421875 -41.8125 L 42.125 -40.5625 L 41.96875 -39.328125 L 41.734375 -38.640625 L 41.578125 -38.015625 L 41.421875 -37.46875 L 41.421875 -36.46875 L 41.265625 -35.921875 L 40.953125 -33.59375 L 40.71875 -32.90625 L 40.640625 -32.046875 L 40.5625 -31.515625 L 40.421875 -30.890625 L 40.1875 -29.890625 L 40.03125 -29.34375 L 39.796875 -28.34375 L 39.640625 -27.25 L 39.484375 -26.640625 L 39.5625 -25.9375 L 39.40625 -25.46875 L 39.328125 -24.9375 L 39.171875 -24.46875 L 39.09375 -23.921875 L 39.015625 -23.453125 L 39.015625 -22.453125 L 38.78125 -21.984375 L 38.5625 -20.90625 L 38.40625 -20.203125 L 38.328125 -19.515625 L 38.25 -19.046875 L 38.171875 -18.5 L 38.09375 -18.046875 L 38.09375 -17.578125 L 37.78125 -16.484375 L 37.625 -15.40625 L 37.46875 -14.625 L 37.15625 -13.9375 L 36.859375 -13 L 36.78125 -12.15625 L 36.703125 -11.15625 L 36.546875 -10.140625 L 36.3125 -9.515625 L 36 -8.4375 L 36 -7.203125 L 35.609375 -6.1875 L 35.609375 -5.734375 L 35.453125 -5.1875 L 35.234375 -4.1875 L 34.84375 -1.703125 L 34.140625 -0.78125 L 33.375 -0.234375 L 32.28125 -0.15625 L 31.4375 0 L 31.125 0 L 29.65625 -0.078125 L 29.109375 0 L 28.34375 -0.078125 L 27.875 0 L 26.328125 0 L 25.3125 -0.078125 L 24 -0.078125 L 23.375 -0.625 L 22.765625 -1.859375 L 22.375 -2.9375 L 22.296875 -3.328125 L 22.21875 -4.265625 L 22.140625 -4.71875 L 21.984375 -6.34375 L 21.90625 -6.8125 L 21.59375 -8.4375 L 21.515625 -8.90625 L 21.375 -9.984375 L 21.296875 -11.15625 L 21.0625 -12 L 20.828125 -13.15625 L 20.828125 -13.625 L 20.59375 -14.703125 L 20.515625 -15.171875 L 20.28125 -16.265625 L 20.203125 -16.71875 L 20.203125 -17.890625 L 19.890625 -19.4375 L 19.75 -20.90625 L 19.4375 -23.078125 L 19.046875 -25.546875 L 18.8125 -27.71875 L 18.34375 -30.5 L 17.890625 -33.453125 L 17.65625 -33.453125 L 17.578125 -31.28125 L 17.5 -29.734375 L 17.421875 -28.875 L 17.265625 -27.5625 L 17.1875 -25.625 L 16.640625 -21.90625 L 16.34375 -18.890625 L 16.1875 -18.421875 L 15.953125 -17.421875 L 16.109375 -16.875 L 15.875 -15.953125 L 15.71875 -15.40625 L 15.796875 -14.859375 L 15.71875 -14.40625 L 15.5625 -13.3125 L 15.25 -12.15625 L 14.9375 -10.609375 L 14.78125 -9.515625 L 14.703125 -9.0625 L 14.5625 -8.515625 L 14.25 -6.265625 L 14.015625 -5.265625 L 13.9375 -4.71875 L 13.9375 -3.71875 L 13.78125 -3.25 L 13.546875 -1.859375 L 13.234375 -0.921875 L 13 -0.15625 L 12.15625 0.15625 Z M 3.953125 0.15625 "/></g></g></g><g fill="#000000" fill-opacity="1"><g transform="translate(98.154408, 80.941842)"><g><path d="M 3.40625 0.078125 L 2.78125 -0.3125 L 2.484375 -0.78125 L 2.40625 -1.3125 L 2.328125 -1.78125 L 2.40625 -2.25 L 2.703125 -3.015625 L 2.9375 -3.796875 L 3.015625 -4.328125 L 3.09375 -4.796875 L 3.40625 -5.8125 L 3.40625 -6.96875 L 3.71875 -7.96875 L 3.71875 -8.515625 L 3.796875 -8.984375 L 3.953125 -9.984375 L 4.109375 -10.6875 L 4.109375 -11.609375 L 4.484375 -12.703125 L 4.640625 -13.15625 L 4.875 -13.703125 L 4.796875 -14.171875 L 5.03125 -15.171875 L 5.265625 -15.71875 L 5.265625 -16.1875 L 5.34375 -16.640625 L 5.5 -17.734375 L 5.65625 -18.1875 L 5.65625 -19.28125 L 5.734375 -19.75 L 5.8125 -20.28125 L 5.8125 -20.75 L 6.109375 -21.828125 L 6.109375 -22.375 L 6.5 -23.453125 L 6.8125 -25.78125 L 7.125 -26.859375 L 7.125 -27.25 L 7.59375 -29.421875 L 7.75 -30.421875 L 7.890625 -31.359375 L 8.28125 -32.359375 L 8.359375 -32.984375 L 8.359375 -34.0625 L 8.75 -35.078125 L 8.75 -35.609375 L 8.90625 -36.546875 L 9.140625 -38.171875 L 9.0625 -38.78125 L 9.296875 -39.40625 L 9.59375 -40.484375 L 9.75 -41.109375 L 9.59375 -41.65625 L 9.75 -42.265625 L 9.828125 -43.28125 L 9.984375 -44.125 L 10.296875 -44.59375 L 10.296875 -45.140625 L 10.375 -45.671875 L 10.375 -46.140625 L 10.6875 -46.6875 L 10.765625 -47.921875 L 11 -49.15625 L 11.296875 -50.09375 L 11.375 -51.015625 L 11.375 -51.5625 L 11.53125 -52.03125 L 11.921875 -53.578125 L 12.15625 -54.046875 L 13.390625 -54.203125 L 15.25 -54.203125 L 18.109375 -54.125 L 21.140625 -54.125 L 22.6875 -54.046875 L 22.921875 -53.109375 L 22.84375 -52.5625 L 22.84375 -52.03125 L 22.375 -50.171875 L 22.375 -49.625 L 22.21875 -49.15625 L 21.984375 -47.53125 L 21.828125 -46.6875 L 21.671875 -45.90625 L 21.0625 -43.203125 L 20.828125 -42.125 L 20.828125 -41.5 L 20.515625 -40.421875 L 20.359375 -39.328125 L 20.046875 -38.78125 L 20.203125 -38.171875 L 20.046875 -37.546875 L 19.96875 -37 L 19.8125 -36.46875 L 19.59375 -35.375 L 19.359375 -34.375 L 19.046875 -33.828125 L 19.125 -33.21875 L 18.96875 -32.671875 L 18.96875 -32.046875 L 18.734375 -30.421875 L 18.578125 -29.890625 L 18.578125 -28.796875 L 18.421875 -28.265625 L 18.1875 -27.09375 L 18.109375 -26.5625 L 17.8125 -25.3125 L 17.734375 -24.15625 L 17.5 -23.078125 L 17.421875 -22.453125 L 17.34375 -21.90625 L 17.03125 -20.671875 L 17.03125 -20.125 L 16.875 -19.515625 L 16.796875 -18.421875 L 16.484375 -17.421875 L 16.40625 -16.40625 L 16.265625 -15.71875 L 16.265625 -14.9375 L 16.1875 -14.40625 L 16.109375 -13.9375 L 15.953125 -13.390625 L 15.875 -12.546875 L 15.71875 -11.765625 L 15.71875 -11 L 16.109375 -10.609375 L 16.875 -10.609375 L 17.578125 -10.53125 L 21.59375 -10.53125 L 23.296875 -10.609375 L 25.3125 -10.609375 L 25.78125 -10.375 L 25.703125 -9.21875 L 25.546875 -8.671875 L 25.625 -8.125 L 25.390625 -7.515625 L 25 -4.796875 L 24.78125 -4.265625 L 24.78125 -3.71875 L 24.703125 -3.25 L 24.546875 -2.09375 L 24.234375 -0.859375 L 23.609375 -0.3125 L 22.140625 -0.3125 L 21.140625 -0.15625 L 19.4375 0.078125 L 18.046875 0 L 16.875 0.078125 L 15.796875 -0.078125 L 14.25 0 L 7.890625 0 L 7.125 0.078125 L 4.953125 0.078125 L 4.40625 0 Z M 3.40625 0.078125 "/></g></g></g><g fill="#000000" fill-opacity="1"><g transform="translate(125.406284, 80.941842)"><g><path d="M 10.6875 0 L 10.140625 -0.078125 L 8.984375 -0.078125 L 8.125 -0.546875 L 8.046875 -1.546875 L 8.203125 -2.484375 L 8.359375 -3.484375 L 8.28125 -3.953125 L 8.4375 -4.484375 L 8.515625 -4.953125 L 8.59375 -5.5 L 8.75 -5.96875 L 8.75 -6.8125 L 8.984375 -7.515625 L 9.375 -9.21875 L 9.453125 -10.0625 L 9.59375 -11.078125 L 9.828125 -11.609375 L 9.984375 -12.78125 L 10.21875 -13.859375 L 10.453125 -14.484375 L 10.453125 -15.25 L 10.6875 -16.484375 L 11 -17.5 L 11.078125 -17.96875 L 11.078125 -18.5 L 11.375 -19.359375 L 11.453125 -20.28125 L 11.84375 -21.59375 L 11.765625 -22.53125 L 11.53125 -23.296875 L 11.453125 -24 L 11.53125 -24.625 L 11.375 -25.15625 L 11.21875 -26.328125 L 11 -27.484375 L 11 -28.109375 L 10.765625 -28.640625 L 10.609375 -29.734375 L 10.6875 -30.1875 L 10.453125 -31.359375 L 10.21875 -32.75 L 10.140625 -33.296875 L 9.90625 -34.21875 L 9.59375 -35.234375 L 9.453125 -36.234375 L 9.453125 -36.78125 L 9.21875 -38.015625 L 8.828125 -39.171875 L 8.75 -39.796875 L 8.59375 -41.734375 L 8.4375 -42.34375 L 8.515625 -43.28125 L 8.28125 -43.828125 L 8.125 -44.984375 L 8.125 -45.53125 L 7.8125 -46.609375 L 7.515625 -48.9375 L 7.4375 -49.9375 L 7.359375 -50.40625 L 7.203125 -51.484375 L 7.125 -52.484375 L 7.125 -53.265625 L 7.359375 -53.890625 L 7.75 -54.046875 L 8.359375 -54.125 L 10.375 -54.203125 L 11.453125 -54.125 L 12.234375 -54.203125 L 12.78125 -54.125 L 13.625 -54.265625 L 15.71875 -54.203125 L 16.875 -54.203125 L 17.734375 -53.265625 L 17.96875 -52.484375 L 17.96875 -50.71875 L 18.1875 -50.09375 L 18.1875 -49.3125 L 18.5 -48.703125 L 18.65625 -46.53125 L 18.578125 -46.0625 L 18.8125 -44.984375 L 18.96875 -44.4375 L 19.28125 -43.671875 L 19.203125 -42.890625 L 19.28125 -41.890625 L 19.515625 -41.109375 L 19.515625 -40.421875 L 19.671875 -39.484375 L 19.96875 -37.46875 L 20.046875 -36.3125 L 20.359375 -36.234375 L 20.59375 -36.625 L 20.75 -37.078125 L 20.90625 -37.46875 L 21.375 -38.40625 L 21.671875 -38.9375 L 21.75 -39.40625 L 22.375 -40.34375 L 22.765625 -41.265625 L 23.234375 -42.125 L 24 -43.96875 L 24.46875 -44.984375 L 24.78125 -45.453125 L 24.859375 -45.984375 L 25.46875 -47 L 25.625 -47.453125 L 25.78125 -48 L 26.484375 -49.546875 L 26.9375 -50.640625 L 27.328125 -51.640625 L 27.5625 -52.109375 L 28.03125 -52.875 L 28.796875 -53.890625 L 29.34375 -54.203125 L 31.890625 -54.34375 L 33.0625 -54.203125 L 34.296875 -54.265625 L 36.3125 -54.265625 L 37.15625 -54.125 L 38.71875 -54.203125 L 39.5625 -53.734375 L 39.5625 -52.71875 L 39.328125 -51.71875 L 39.171875 -51.328125 L 38.5625 -50.484375 L 38.40625 -50.015625 L 37.9375 -49.078125 L 37.625 -48.625 L 37.546875 -48.078125 L 37.078125 -47.15625 L 36.78125 -46.765625 L 36.46875 -45.828125 L 35.84375 -44.984375 L 35.6875 -44.4375 L 35.375 -43.96875 L 35.234375 -43.515625 L 34.53125 -42.046875 L 34.0625 -41.578125 L 33.59375 -40.484375 L 32.984375 -39.5625 L 32.90625 -39.09375 L 32.59375 -38.640625 L 32.4375 -38.171875 L 31.671875 -36.859375 L 31.28125 -35.84375 L 31.046875 -35.296875 L 30.890625 -34.84375 L 30.34375 -33.90625 L 30.1875 -33.53125 L 29.8125 -33.0625 L 29.734375 -32.59375 L 28.953125 -31.59375 L 28.640625 -31.125 L 28.34375 -30.578125 L 27.875 -29.578125 L 27.40625 -28.796875 L 26.78125 -27.40625 L 26.171875 -26.484375 L 25.703125 -25.46875 L 25.234375 -25 L 25 -24.625 L 24.78125 -24.15625 L 24.234375 -23.234375 L 23.921875 -22.296875 L 23.609375 -21.90625 L 23.453125 -21.296875 L 23.234375 -20.90625 L 22.84375 -20.515625 L 22.6875 -19.75 L 22.6875 -19.203125 L 22.375 -18.1875 L 22.140625 -17.34375 L 21.984375 -16.5625 L 21.828125 -15.640625 L 21.671875 -15.171875 L 21.75 -14.703125 L 21.515625 -13.703125 L 21.296875 -12.625 L 20.984375 -11.453125 L 20.671875 -10.375 L 20.59375 -9.828125 L 20.359375 -9.0625 L 20.203125 -8.515625 L 20.203125 -8.046875 L 20.046875 -6.96875 L 19.8125 -5.8125 L 19.671875 -5.265625 L 19.359375 -4.109375 L 19.125 -3.015625 L 18.890625 -1.625 L 18.5 0 L 15.71875 0 L 15.09375 -0.078125 L 14.625 0 L 13.9375 0 L 12.78125 -0.078125 L 12.3125 0 Z M 10.6875 0 "/></g></g></g><g fill="#000000" fill-opacity="1"><g transform="translate(158.387181, 80.941842)"><g/></g></g><g fill="#000000" fill-opacity="1"><g transform="translate(175.729297, 80.941842)"><g><path d="M 4.484375 0.078125 L 3.71875 0 L 2.78125 -0.15625 L 2.484375 -0.921875 L 2.484375 -1.78125 L 2.78125 -2.40625 L 2.703125 -3.484375 L 2.78125 -3.953125 L 2.859375 -4.484375 L 3.015625 -5.34375 L 3.328125 -5.96875 L 3.40625 -6.421875 L 3.484375 -6.96875 L 3.5625 -7.96875 L 3.640625 -8.59375 L 3.953125 -9.671875 L 4.265625 -10.453125 L 4.265625 -11.15625 L 4.40625 -11.609375 L 4.484375 -12.703125 L 4.71875 -13.390625 L 4.71875 -14.015625 L 4.875 -14.484375 L 4.875 -15.015625 L 5.1875 -15.953125 L 5.1875 -17.03125 L 5.34375 -18.046875 L 5.734375 -19.125 L 5.96875 -20.359375 L 5.890625 -20.90625 L 6.03125 -22.0625 L 6.265625 -22.609375 L 6.265625 -23.6875 L 6.578125 -25.859375 L 6.890625 -26.859375 L 6.890625 -27.40625 L 7.125 -28.484375 L 7.203125 -29.5 L 7.515625 -30.5 L 7.8125 -31.4375 L 7.96875 -31.96875 L 8.203125 -32.90625 L 8.203125 -33.828125 L 8.359375 -34.921875 L 8.59375 -35.453125 L 8.75 -36.546875 L 8.90625 -37.078125 L 9.0625 -38.09375 L 8.984375 -38.5625 L 9.0625 -39.09375 L 9.0625 -39.640625 L 9.140625 -40.1875 L 9.515625 -41.421875 L 9.515625 -41.96875 L 9.75 -42.421875 L 9.828125 -43.515625 L 10.0625 -44.515625 L 10.21875 -44.984375 L 10.296875 -45.59375 L 10.375 -46.609375 L 10.453125 -47.453125 L 10.765625 -48 L 10.765625 -48.625 L 11.078125 -50.015625 L 11.21875 -51.015625 L 11.375 -51.40625 L 11.296875 -52.34375 L 11.375 -52.875 L 11.53125 -53.8125 L 12.46875 -54.203125 L 16.265625 -54.34375 L 19.046875 -54.265625 L 21.0625 -54.203125 L 30.109375 -54.203125 L 31.359375 -54.125 L 32.28125 -54.125 L 33.296875 -53.8125 L 33.53125 -53.1875 L 33.375 -52.640625 L 33.375 -51.796875 L 33.21875 -50.78125 L 33.21875 -50.40625 L 32.984375 -49.078125 L 32.75 -48.078125 L 32.671875 -47.609375 L 32.671875 -47.078125 L 32.359375 -45.671875 L 32.125 -44.046875 L 31.4375 -43.671875 L 30.734375 -43.75 L 29.5 -43.59375 L 28.03125 -43.75 L 26.9375 -43.828125 L 24.9375 -43.75 L 21.75 -43.671875 L 20.984375 -43.671875 L 20.828125 -43.046875 L 20.75 -42.1875 L 20.671875 -41.65625 L 20.4375 -40.484375 L 20.203125 -39.40625 L 20.203125 -39.015625 L 19.890625 -37.15625 L 19.59375 -36.546875 L 19.59375 -35.921875 L 19.4375 -35.375 L 19.359375 -34.921875 L 19.359375 -34.375 L 19.203125 -33.453125 L 18.96875 -32.671875 L 19.8125 -32.59375 L 23.234375 -32.515625 L 24.15625 -32.59375 L 25.234375 -32.671875 L 26.09375 -32.671875 L 27.171875 -32.59375 L 27.40625 -31.75 L 27.328125 -31.125 L 27.09375 -30.5 L 27.09375 -29.890625 L 26.78125 -28.796875 L 26.78125 -28.40625 L 26.5625 -27.484375 L 26.484375 -27.015625 L 26.40625 -26.484375 L 26.171875 -25.46875 L 26.171875 -24.546875 L 25.859375 -23.53125 L 25.625 -22.453125 L 25.15625 -21.515625 L 24.390625 -21.515625 L 23.53125 -21.59375 L 20.75 -21.59375 L 18.96875 -21.453125 L 17.109375 -21.59375 L 16.875 -20.359375 L 16.71875 -19.59375 L 16.5625 -18.578125 L 16.34375 -17.5 L 16.265625 -17.109375 L 15.953125 -16.265625 L 16.03125 -15.796875 L 15.796875 -14.78125 L 15.5625 -13.625 L 15.328125 -12.703125 L 15.015625 -11.6875 L 15.09375 -11.15625 L 14.9375 -10.609375 L 14.859375 -9.515625 L 14.859375 -9.0625 L 14.703125 -7.96875 L 14.5625 -7.046875 L 14.484375 -6.5 L 14.015625 -5.578125 L 13.9375 -5.03125 L 13.9375 -4.5625 L 13.859375 -4.03125 L 13.9375 -3.484375 L 13.703125 -2.5625 L 13.546875 -1.625 L 13.234375 -0.625 L 12.46875 -0.078125 L 11.921875 -0.15625 L 11.375 -0.078125 L 9.515625 0.078125 L 7.96875 0 L 7.515625 0.078125 Z M 4.484375 0.078125 "/></g></g></g><g fill="#000000" fill-opacity="1"><g transform="translate(203.987595, 80.941842)"><g><path d="M 18.734375 1.234375 L 16.71875 1 L 15.71875 1.078125 L 15.171875 1 L 14.484375 0.921875 L 12.703125 0.390625 L 12.078125 0.3125 L 10.921875 0 L 10.375 -0.3125 L 9.296875 -1 L 7.890625 -2.171875 L 6.8125 -3.40625 L 6.578125 -3.796875 L 6.1875 -4.1875 L 5.96875 -4.640625 L 5.578125 -5.1875 L 4.953125 -6.1875 L 4.953125 -6.65625 L 4.71875 -7.203125 L 4.640625 -7.671875 L 4.484375 -8.046875 L 4.328125 -8.515625 L 4.265625 -9.0625 L 4.109375 -9.515625 L 4.03125 -10.609375 L 3.953125 -11.078125 L 3.71875 -12.625 L 3.875 -13.15625 L 3.875 -14.625 L 4.109375 -15.40625 L 4.03125 -16.03125 L 4.03125 -16.5625 L 4.1875 -18.265625 L 4.484375 -19.359375 L 4.484375 -19.96875 L 4.640625 -21.0625 L 4.640625 -21.59375 L 4.953125 -22.6875 L 4.796875 -23.078125 L 4.953125 -24.078125 L 5.109375 -24.625 L 5.34375 -26.015625 L 5.578125 -26.9375 L 5.578125 -27.953125 L 5.8125 -28.875 L 5.8125 -29.421875 L 6.03125 -29.890625 L 6.1875 -30.421875 L 6.1875 -30.890625 L 6.34375 -31.4375 L 6.265625 -31.890625 L 6.734375 -32.671875 L 6.890625 -33.21875 L 6.890625 -34.296875 L 7.046875 -35.234375 L 7.28125 -35.765625 L 7.359375 -36.234375 L 7.515625 -37.3125 L 7.8125 -39.25 L 8.203125 -39.796875 L 8.359375 -40.796875 L 8.828125 -41.8125 L 9.0625 -42.34375 L 9.375 -43.28125 L 9.75 -44.359375 L 10.21875 -45.296875 L 10.53125 -45.828125 L 11.21875 -46.84375 L 11.296875 -47.375 L 11.609375 -47.84375 L 12.234375 -48.859375 L 12.859375 -49.78125 L 13.390625 -50.171875 L 13.78125 -50.640625 L 14.859375 -51.796875 L 15.875 -52.484375 L 16.484375 -52.71875 L 17.03125 -53.109375 L 17.96875 -53.65625 L 18.890625 -54.125 L 20.046875 -54.421875 L 20.515625 -54.5 L 21.671875 -54.8125 L 22.453125 -54.890625 L 23.84375 -55.125 L 24.9375 -55.203125 L 25.859375 -55.28125 L 27.25 -55.203125 L 27.71875 -55.125 L 28.5625 -55.046875 L 29.8125 -54.890625 L 30.421875 -54.65625 L 31.046875 -54.578125 L 31.515625 -54.421875 L 32.671875 -53.890625 L 34.0625 -52.953125 L 34.6875 -52.5625 L 35.078125 -52.109375 L 35.921875 -51.40625 L 36.78125 -50.640625 L 37.15625 -50.171875 L 37.390625 -49.625 L 37.859375 -48.625 L 38.09375 -48.15625 L 38.25 -47.6875 L 38.40625 -47.15625 L 38.640625 -45.984375 L 38.78125 -44.515625 L 38.859375 -43.890625 L 38.859375 -43.359375 L 38.78125 -42.34375 L 38.71875 -41.890625 L 38.78125 -40.875 L 38.78125 -40.34375 L 38.71875 -39.328125 L 38.5625 -38.78125 L 38.484375 -38.328125 L 38.5625 -37.78125 L 38.5625 -37 L 38.484375 -36.546875 L 38.328125 -35.453125 L 38.25 -34.296875 L 38.171875 -33.0625 L 38.015625 -32.515625 L 37.859375 -31.28125 L 37.9375 -30.5 L 37.546875 -29.65625 L 37.625 -28.71875 L 37.3125 -27.71875 L 37.15625 -26.703125 L 36.9375 -25.703125 L 36.859375 -24.78125 L 36.625 -23.765625 L 36.390625 -23.296875 L 36.15625 -21.90625 L 36.15625 -21.21875 L 36 -20.671875 L 35.84375 -19.59375 L 35.609375 -19.125 L 34.84375 -16.40625 L 34.921875 -15.953125 L 34.53125 -15.015625 L 34.296875 -14.5625 L 34.21875 -13.703125 L 33.828125 -12.859375 L 33.59375 -11.921875 L 33.59375 -11.375 L 33.375 -10.53125 L 32.984375 -9.984375 L 32.90625 -9.21875 L 32.359375 -8.125 L 31.75 -6.734375 L 31.359375 -6.1875 L 30.65625 -5.1875 L 30.34375 -4.71875 L 29.96875 -4.265625 L 29.8125 -3.796875 L 28.875 -2.859375 L 28.40625 -2.484375 L 28.03125 -2.015625 L 27.09375 -1.3125 L 26.171875 -0.703125 L 25.859375 -0.46875 L 24.078125 0.234375 L 23.53125 0.3125 L 22.921875 0.46875 L 21.828125 0.703125 L 21.296875 0.78125 L 20.4375 1 Z M 18.109375 -9.296875 L 19.125 -9.296875 L 20.203125 -9.59375 L 20.90625 -9.90625 L 21.984375 -10.6875 L 22.53125 -11.765625 L 23 -12.859375 L 23.15625 -13.390625 L 23.15625 -14.015625 L 23.375 -15.171875 L 23.53125 -15.71875 L 23.6875 -16.796875 L 23.921875 -17.421875 L 24 -18.5 L 24.234375 -19.046875 L 24.46875 -20.046875 L 24.546875 -20.671875 L 24.78125 -21.140625 L 24.78125 -21.75 L 24.703125 -21.984375 L 24.9375 -22.6875 L 25.15625 -23.84375 L 25.3125 -25.625 L 25.546875 -26.328125 L 25.78125 -26.9375 L 25.9375 -28.40625 L 26.171875 -28.875 L 26.09375 -30.1875 L 26.40625 -31.359375 L 26.5625 -32.28125 L 26.703125 -32.90625 L 26.859375 -33.453125 L 26.78125 -33.984375 L 26.859375 -35 L 27.015625 -35.609375 L 27.25 -36.703125 L 27.40625 -37.390625 L 27.40625 -38.40625 L 27.5625 -39.796875 L 27.640625 -40.796875 L 27.796875 -41.890625 L 27.484375 -43.4375 L 27.171875 -43.890625 L 26.640625 -44.59375 L 25.390625 -45.140625 L 23.921875 -45.0625 L 23.296875 -44.90625 L 22.0625 -44.4375 L 21.296875 -43.75 L 20.75 -42.890625 L 20.4375 -41.96875 L 20.125 -41.421875 L 19.671875 -40.421875 L 19.515625 -39.875 L 19.359375 -39.25 L 18.890625 -37.625 L 18.890625 -37.46875 L 18.8125 -36.859375 L 18.578125 -35.765625 L 18.5 -35.296875 L 18.1875 -34.21875 L 17.96875 -33.140625 L 17.734375 -31.890625 L 17.65625 -31.359375 L 17.5 -30.8125 L 17.34375 -29.65625 L 17.109375 -29.03125 L 16.796875 -27.796875 L 16.640625 -27.25 L 16.484375 -26.171875 L 16.484375 -25.625 L 16.40625 -25.078125 L 16.484375 -24.46875 L 16.265625 -23.921875 L 15.875 -22.84375 L 15.953125 -22.21875 L 15.796875 -21.671875 L 15.875 -21.375 L 15.71875 -20.671875 L 15.71875 -20.046875 L 15.5625 -19.515625 L 15.5625 -18.890625 L 15.328125 -17.734375 L 15.328125 -17.1875 L 15.09375 -16.640625 L 15.328125 -16.109375 L 15.25 -15.171875 L 14.9375 -14.40625 L 15.171875 -13.859375 L 15.171875 -11.6875 L 15.40625 -11.15625 L 15.5625 -10.84375 L 16.03125 -10.140625 L 16.40625 -9.75 L 17.03125 -9.515625 L 17.65625 -9.375 Z M 18.109375 -9.296875 "/></g></g></g><g fill="#000000" fill-opacity="1"><g transform="translate(241.536264, 80.941842)"><g><path d="M 10.21875 0.15625 L 7.4375 0.078125 L 6.421875 0.078125 L 4.03125 -0.078125 L 3.328125 -0.234375 L 3.171875 -0.703125 L 3.171875 -1.390625 L 3.40625 -2.171875 L 3.484375 -2.9375 L 3.5625 -3.796875 L 3.5625 -4.328125 L 3.71875 -4.796875 L 3.71875 -5.34375 L 3.953125 -5.890625 L 3.953125 -6.34375 L 4.03125 -6.890625 L 4.265625 -7.96875 L 4.265625 -8.515625 L 4.484375 -9.140625 L 4.40625 -9.671875 L 4.640625 -10.296875 L 4.71875 -11.375 L 4.875 -12 L 4.953125 -12.546875 L 4.875 -13.15625 L 5.1875 -13.78125 L 5.1875 -14.9375 L 5.578125 -16.34375 L 5.578125 -17.03125 L 5.734375 -17.8125 L 5.8125 -18.96875 L 5.8125 -19.59375 L 6.109375 -20.671875 L 6.1875 -21.21875 L 6.265625 -21.828125 L 6.265625 -22.53125 L 6.65625 -23.078125 L 6.8125 -23.53125 L 6.734375 -24 L 6.8125 -24.9375 L 6.96875 -25.46875 L 7.203125 -25.9375 L 7.203125 -26.40625 L 7.359375 -26.9375 L 7.515625 -27.796875 L 7.59375 -28.265625 L 7.75 -29.265625 L 7.890625 -30.34375 L 7.890625 -30.96875 L 8.28125 -32.59375 L 8.28125 -33.140625 L 8.359375 -33.59375 L 8.4375 -34.140625 L 8.59375 -35.15625 L 8.671875 -35.609375 L 8.671875 -36.15625 L 8.75 -36.625 L 9.0625 -37.546875 L 9.140625 -38.640625 L 9.21875 -39.09375 L 9.453125 -40.1875 L 9.671875 -41.421875 L 9.90625 -42.5 L 9.984375 -42.96875 L 9.984375 -43.4375 L 10.0625 -44.4375 L 10.0625 -44.90625 L 10.21875 -45.453125 L 10.453125 -46.375 L 10.6875 -47.609375 L 11 -49.78125 L 11.078125 -50.40625 L 11.15625 -50.9375 L 11.15625 -51.5625 L 11.453125 -52.1875 L 11.375 -53.03125 L 11.6875 -53.421875 L 12.234375 -54.046875 L 13 -54.203125 L 14.09375 -54.203125 L 18.734375 -54.125 L 22.0625 -54.125 L 22.609375 -54.203125 L 23.375 -54.265625 L 24 -54.125 L 25.15625 -53.96875 L 25.859375 -53.96875 L 26.859375 -53.8125 L 28.03125 -53.734375 L 28.875 -53.578125 L 30.109375 -53.578125 L 30.734375 -53.421875 L 32.28125 -52.71875 L 32.828125 -52.5625 L 33.53125 -52.109375 L 33.984375 -51.875 L 34.375 -51.640625 L 35.296875 -51.09375 L 35.609375 -50.78125 L 36 -50.328125 L 36.3125 -49.9375 L 36.859375 -49.015625 L 37.390625 -47.921875 L 37.625 -46.6875 L 37.78125 -45.21875 L 37.78125 -44.671875 L 38.015625 -43.203125 L 38.015625 -42.578125 L 37.78125 -41.5 L 37.703125 -40.953125 L 37.78125 -39.796875 L 37.78125 -39.25 L 37.546875 -38.015625 L 37.390625 -36.78125 L 37.15625 -36 L 36.859375 -35.078125 L 36.703125 -34.53125 L 36.546875 -34.0625 L 36.3125 -33.53125 L 35.921875 -32.59375 L 35.234375 -31.59375 L 35 -31.046875 L 34.6875 -30.34375 L 34.0625 -29.34375 L 33.828125 -28.875 L 32.984375 -27.875 L 32.59375 -27.484375 L 31.515625 -26.328125 L 29.96875 -25.3125 L 28.875 -24.78125 L 28.34375 -24.703125 L 28.34375 -24 L 28.5625 -23.375 L 28.953125 -22.21875 L 28.953125 -21.515625 L 29.109375 -20.515625 L 29.421875 -20.046875 L 29.5 -19.4375 L 29.65625 -18.421875 L 29.890625 -17.96875 L 30.109375 -16.953125 L 30.265625 -16.484375 L 30.421875 -15.40625 L 30.65625 -14.859375 L 30.8125 -14.25 L 31.125 -13.234375 L 31.125 -12.78125 L 31.515625 -11.609375 L 31.671875 -10.609375 L 32.515625 -7.8125 L 32.671875 -6.734375 L 33.21875 -5.421875 L 33.296875 -4.484375 L 33.375 -3.953125 L 33.53125 -3.25 L 34.0625 -1.78125 L 33.828125 -0.78125 L 33.453125 -0.703125 L 32.59375 -0.546875 L 31.59375 -0.546875 L 29.96875 -0.3125 L 27.953125 -0.078125 L 26.9375 -0.078125 L 26.09375 0 L 25.46875 0 L 24.78125 0.078125 L 24.3125 0 L 23.609375 -0.703125 L 23.453125 -1.078125 L 23.234375 -2.015625 L 23.078125 -2.40625 L 22.84375 -3.25 L 22.375 -4.40625 L 22.375 -5.03125 L 22.140625 -5.65625 L 21.984375 -5.890625 L 21.828125 -6.890625 L 21.59375 -7.4375 L 21.59375 -7.96875 L 21.375 -8.4375 L 21.296875 -8.984375 L 21.0625 -9.828125 L 20.75 -10.609375 L 20.75 -11.53125 L 20.28125 -12.921875 L 20.203125 -13.46875 L 19.890625 -14.40625 L 19.75 -14.9375 L 19.59375 -15.953125 L 19.28125 -16.953125 L 19.203125 -18.046875 L 19.046875 -18.421875 L 18.8125 -19.515625 L 18.65625 -20.28125 L 18.34375 -20.90625 L 18.1875 -21.515625 L 17.890625 -22.140625 L 17.578125 -22.453125 L 17.03125 -22.53125 L 16.953125 -22.21875 L 16.796875 -21.75 L 16.5625 -20.671875 L 16.484375 -20.046875 L 16.265625 -18.421875 L 16.265625 -17.109375 L 15.875 -16.109375 L 15.71875 -15.015625 L 15.71875 -14.5625 L 15.5625 -13.46875 L 15.25 -12.859375 L 15.25 -11.21875 L 15.09375 -10.609375 L 14.78125 -8.984375 L 14.703125 -8.359375 L 14.5625 -7.890625 L 14.5625 -7.28125 L 14.328125 -6.1875 L 14.40625 -5.734375 L 14.25 -5.1875 L 14.25 -4.71875 L 14.171875 -3.71875 L 14.09375 -3.171875 L 14.09375 -2.703125 L 14.015625 -2.171875 L 13.9375 -1.234375 L 13.703125 -0.703125 L 13.46875 0 L 12.703125 -0.078125 L 12 0 L 10.84375 0.078125 Z M 20.28125 -31.75 L 21.515625 -31.75 L 22.453125 -31.96875 L 22.921875 -32.28125 L 23.6875 -32.75 L 24.234375 -33.0625 L 24.78125 -33.671875 L 25.078125 -34.140625 L 25.625 -34.609375 L 26.015625 -35.609375 L 26.171875 -36.234375 L 26.25 -36.703125 L 26.78125 -37.78125 L 26.78125 -38.40625 L 27.015625 -39.015625 L 27.09375 -40.265625 L 27.015625 -41.96875 L 26.78125 -43.59375 L 26.40625 -44.28125 L 25.859375 -44.828125 L 25.15625 -45.21875 L 23.453125 -45.453125 L 21.59375 -45.53125 L 20.90625 -45.296875 L 20.671875 -44.4375 L 20.4375 -43.890625 L 20.28125 -42.65625 L 20.203125 -41.5 L 20.125 -40.484375 L 19.96875 -39.875 L 19.75 -38.640625 L 19.75 -38.09375 L 19.59375 -36.9375 L 19.359375 -36.234375 L 19.4375 -35.53125 L 19.28125 -34.84375 L 19.046875 -33.59375 L 18.96875 -33.0625 L 19.046875 -32.515625 L 18.96875 -31.890625 Z M 20.28125 -31.75 "/></g></g></g><g fill="#000000" fill-opacity="1"><g transform="translate(277.923683, 80.941842)"><g/></g></g><g fill="#000000" fill-opacity="1"><g transform="translate(295.265799, 80.941842)"><g><path d="M 3.40625 0.078125 L 2.78125 -0.3125 L 2.484375 -0.78125 L 2.40625 -1.3125 L 2.328125 -1.78125 L 2.40625 -2.25 L 2.703125 -3.015625 L 2.9375 -3.796875 L 3.015625 -4.328125 L 3.09375 -4.796875 L 3.40625 -5.8125 L 3.40625 -6.96875 L 3.71875 -7.96875 L 3.71875 -8.515625 L 3.796875 -8.984375 L 3.953125 -9.984375 L 4.109375 -10.6875 L 4.109375 -11.609375 L 4.484375 -12.703125 L 4.640625 -13.15625 L 4.875 -13.703125 L 4.796875 -14.171875 L 5.03125 -15.171875 L 5.265625 -15.71875 L 5.265625 -16.1875 L 5.34375 -16.640625 L 5.5 -17.734375 L 5.65625 -18.1875 L 5.65625 -19.28125 L 5.734375 -19.75 L 5.8125 -20.28125 L 5.8125 -20.75 L 6.109375 -21.828125 L 6.109375 -22.375 L 6.5 -23.453125 L 6.8125 -25.78125 L 7.125 -26.859375 L 7.125 -27.25 L 7.59375 -29.421875 L 7.75 -30.421875 L 7.890625 -31.359375 L 8.28125 -32.359375 L 8.359375 -32.984375 L 8.359375 -34.0625 L 8.75 -35.078125 L 8.75 -35.609375 L 8.90625 -36.546875 L 9.140625 -38.171875 L 9.0625 -38.78125 L 9.296875 -39.40625 L 9.59375 -40.484375 L 9.75 -41.109375 L 9.59375 -41.65625 L 9.75 -42.265625 L 9.828125 -43.28125 L 9.984375 -44.125 L 10.296875 -44.59375 L 10.296875 -45.140625 L 10.375 -45.671875 L 10.375 -46.140625 L 10.6875 -46.6875 L 10.765625 -47.921875 L 11 -49.15625 L 11.296875 -50.09375 L 11.375 -51.015625 L 11.375 -51.5625 L 11.53125 -52.03125 L 11.921875 -53.578125 L 12.15625 -54.046875 L 13.390625 -54.203125 L 15.25 -54.203125 L 18.109375 -54.125 L 21.140625 -54.125 L 22.6875 -54.046875 L 22.921875 -53.109375 L 22.84375 -52.5625 L 22.84375 -52.03125 L 22.375 -50.171875 L 22.375 -49.625 L 22.21875 -49.15625 L 21.984375 -47.53125 L 21.828125 -46.6875 L 21.671875 -45.90625 L 21.0625 -43.203125 L 20.828125 -42.125 L 20.828125 -41.5 L 20.515625 -40.421875 L 20.359375 -39.328125 L 20.046875 -38.78125 L 20.203125 -38.171875 L 20.046875 -37.546875 L 19.96875 -37 L 19.8125 -36.46875 L 19.59375 -35.375 L 19.359375 -34.375 L 19.046875 -33.828125 L 19.125 -33.21875 L 18.96875 -32.671875 L 18.96875 -32.046875 L 18.734375 -30.421875 L 18.578125 -29.890625 L 18.578125 -28.796875 L 18.421875 -28.265625 L 18.1875 -27.09375 L 18.109375 -26.5625 L 17.8125 -25.3125 L 17.734375 -24.15625 L 17.5 -23.078125 L 17.421875 -22.453125 L 17.34375 -21.90625 L 17.03125 -20.671875 L 17.03125 -20.125 L 16.875 -19.515625 L 16.796875 -18.421875 L 16.484375 -17.421875 L 16.40625 -16.40625 L 16.265625 -15.71875 L 16.265625 -14.9375 L 16.1875 -14.40625 L 16.109375 -13.9375 L 15.953125 -13.390625 L 15.875 -12.546875 L 15.71875 -11.765625 L 15.71875 -11 L 16.109375 -10.609375 L 16.875 -10.609375 L 17.578125 -10.53125 L 21.59375 -10.53125 L 23.296875 -10.609375 L 25.3125 -10.609375 L 25.78125 -10.375 L 25.703125 -9.21875 L 25.546875 -8.671875 L 25.625 -8.125 L 25.390625 -7.515625 L 25 -4.796875 L 24.78125 -4.265625 L 24.78125 -3.71875 L 24.703125 -3.25 L 24.546875 -2.09375 L 24.234375 -0.859375 L 23.609375 -0.3125 L 22.140625 -0.3125 L 21.140625 -0.15625 L 19.4375 0.078125 L 18.046875 0 L 16.875 0.078125 L 15.796875 -0.078125 L 14.25 0 L 7.890625 0 L 7.125 0.078125 L 4.953125 0.078125 L 4.40625 0 Z M 3.40625 0.078125 "/></g></g></g><g fill="#000000" fill-opacity="1"><g transform="translate(322.517674, 80.941842)"><g><path d="M 11.375 0.078125 L 9.90625 0 L 7.890625 0 L 7.359375 -0.078125 L 3.25 -0.078125 L 2.5625 -0.234375 L 2.328125 -0.921875 L 2.5625 -1.625 L 2.703125 -2.328125 L 2.859375 -3.484375 L 3.015625 -4.71875 L 3.328125 -5.890625 L 3.40625 -7.125 L 3.640625 -7.75 L 3.640625 -8.4375 L 3.796875 -8.984375 L 3.796875 -9.515625 L 3.953125 -10.140625 L 4.03125 -10.6875 L 4.109375 -11.765625 L 4.265625 -12.78125 L 4.5625 -13.390625 L 4.71875 -14.625 L 4.71875 -15.171875 L 4.875 -15.796875 L 5.03125 -16.796875 L 5.03125 -17.1875 L 5.34375 -18.109375 L 5.265625 -18.578125 L 5.5 -19.59375 L 5.734375 -20.125 L 5.8125 -20.671875 L 6.03125 -21.828125 L 6.1875 -22.375 L 6.5 -24 L 6.5 -25.15625 L 6.8125 -26.25 L 6.96875 -27.40625 L 7.203125 -27.953125 L 7.28125 -28.5625 L 7.359375 -29.109375 L 7.359375 -29.65625 L 7.671875 -30.109375 L 8.125 -32.4375 L 8.359375 -33.0625 L 8.515625 -33.59375 L 8.4375 -34.0625 L 8.671875 -35.15625 L 8.984375 -36.3125 L 9.0625 -38.484375 L 9.296875 -39.015625 L 9.375 -40.640625 L 9.671875 -41.109375 L 9.828125 -41.734375 L 9.90625 -42.265625 L 9.828125 -42.734375 L 9.90625 -43.28125 L 10.21875 -44.28125 L 10.375 -45.375 L 10.609375 -45.828125 L 10.609375 -46.375 L 10.84375 -46.921875 L 10.765625 -47.375 L 10.921875 -47.921875 L 11 -48.9375 L 11.15625 -49.390625 L 11.21875 -49.859375 L 11.296875 -50.859375 L 11.375 -51.328125 L 11.21875 -51.875 L 11.453125 -52.796875 L 11.6875 -53.265625 L 11.765625 -53.734375 L 12.390625 -54.203125 L 13.703125 -54.203125 L 14.171875 -54.265625 L 14.703125 -54.203125 L 15.640625 -54.265625 L 16.1875 -54.265625 L 16.796875 -54.203125 L 17.578125 -54.203125 L 19.28125 -54.265625 L 25.078125 -54.34375 L 26.859375 -54.265625 L 27.484375 -54.203125 L 29.734375 -54.265625 L 31.4375 -54.265625 L 32.125 -54.34375 L 32.90625 -54.265625 L 33.59375 -54.203125 L 33.984375 -53.65625 L 33.75 -52.796875 L 33.75 -52.34375 L 33.59375 -50.40625 L 33.59375 -49.9375 L 33.375 -49.390625 L 33.296875 -48.859375 L 33.21875 -48.390625 L 32.984375 -47.234375 L 32.984375 -46.609375 L 32.671875 -45.53125 L 32.59375 -45.0625 L 32.359375 -44.046875 L 31.59375 -43.96875 L 28.34375 -43.96875 L 27.40625 -43.890625 L 22.375 -43.890625 L 20.515625 -43.828125 L 20.28125 -42.890625 L 20.203125 -42.34375 L 20.203125 -41.265625 L 19.96875 -40.796875 L 19.96875 -40.1875 L 19.75 -38.71875 L 19.59375 -37.625 L 19.359375 -36.546875 L 19.203125 -36 L 19.28125 -35.375 L 19.046875 -34.609375 L 18.890625 -33.21875 L 20.28125 -33.21875 L 23 -33.140625 L 24.46875 -33.296875 L 26.484375 -33.296875 L 27.09375 -33.140625 L 27.5625 -32.515625 L 27.40625 -31.59375 L 27.40625 -30.96875 L 27.25 -30.109375 L 27.015625 -29.03125 L 26.859375 -28.484375 L 26.640625 -27.328125 L 26.640625 -26.78125 L 26.40625 -26.171875 L 26.25 -25.078125 L 26.015625 -23.84375 L 25.859375 -22.765625 L 25.703125 -22.609375 L 24.9375 -22.609375 L 23.765625 -22.53125 L 23.078125 -22.53125 L 21.140625 -22.453125 L 19.8125 -22.53125 L 18.96875 -22.53125 L 17.96875 -22.453125 L 17.265625 -22.453125 L 16.953125 -21.59375 L 16.71875 -20.59375 L 16.40625 -18.421875 L 16.1875 -17.65625 L 16.03125 -16.953125 L 15.953125 -16.1875 L 15.796875 -15.640625 L 15.5625 -14.25 L 15.25 -12.234375 L 15.25 -11.609375 L 15.5625 -11.296875 L 16.640625 -11.15625 L 21.21875 -11.15625 L 22.296875 -11.078125 L 24 -11 L 26.171875 -11.078125 L 26.703125 -10.84375 L 26.640625 -10.21875 L 26.5625 -9.90625 L 26.40625 -9.0625 L 26.328125 -8.4375 L 26.015625 -6.734375 L 26.015625 -5.734375 L 25.859375 -5.1875 L 25.703125 -4.71875 L 25.625 -4.1875 L 25.390625 -3.015625 L 25.3125 -1.703125 L 25.15625 -1 L 24.9375 -0.15625 L 17.578125 -0.15625 L 16.34375 -0.078125 L 15.328125 -0.15625 L 14.859375 -0.078125 L 13.234375 -0.078125 L 12 0 Z M 11.375 0.078125 "/></g></g></g><g fill="#000000" fill-opacity="1"><g transform="translate(351.705016, 80.941842)"><g><path d="M 16.796875 0.78125 L 15.796875 0.703125 L 15.25 0.703125 L 14.015625 0.546875 L 13.546875 0.546875 L 12.234375 0.234375 L 11.453125 0 L 10.140625 -0.3125 L 9.0625 -0.859375 L 7.96875 -1.703125 L 7.359375 -2.015625 L 6.578125 -2.859375 L 6.265625 -3.25 L 6.03125 -3.640625 L 5.5 -4.5625 L 4.953125 -5.109375 L 4.71875 -5.8125 L 4.484375 -6.578125 L 4.40625 -7.203125 L 4.109375 -7.96875 L 3.875 -8.515625 L 3.875 -8.984375 L 3.5625 -10.609375 L 3.640625 -12 L 3.796875 -12.78125 L 3.796875 -13.859375 L 3.875 -14.171875 L 3.875 -15.171875 L 3.953125 -15.71875 L 4.03125 -16.1875 L 4.109375 -17.1875 L 4.1875 -17.734375 L 4.328125 -18.734375 L 4.1875 -19.28125 L 4.484375 -20.28125 L 4.484375 -21.296875 L 4.71875 -22.375 L 4.796875 -23.53125 L 5.109375 -24.625 L 5.1875 -25.859375 L 5.265625 -26.484375 L 5.578125 -27.5625 L 5.734375 -28.640625 L 6.34375 -31.28125 L 6.265625 -31.96875 L 6.5 -32.75 L 6.578125 -33.296875 L 6.890625 -34.375 L 7.125 -35.234375 L 7.28125 -36.234375 L 7.359375 -36.859375 L 7.671875 -37.546875 L 7.75 -38.40625 L 7.890625 -38.9375 L 7.96875 -39.40625 L 8.203125 -39.875 L 8.28125 -40.421875 L 8.515625 -40.875 L 8.671875 -41.421875 L 8.90625 -41.890625 L 9.296875 -42.8125 L 9.375 -43.203125 L 9.671875 -44.125 L 9.984375 -45.21875 L 10.21875 -45.671875 L 10.453125 -46.296875 L 10.921875 -47.3125 L 11.15625 -47.765625 L 11.296875 -48.3125 L 11.6875 -49.015625 L 12.078125 -49.859375 L 12.390625 -50.25 L 12.625 -50.71875 L 12.921875 -51.09375 L 13.78125 -52.03125 L 14.78125 -52.796875 L 15.796875 -53.265625 L 16.796875 -53.8125 L 17.8125 -54.203125 L 18.8125 -54.5 L 20.046875 -54.65625 L 21.140625 -54.890625 L 23.453125 -54.890625 L 25.546875 -54.96875 L 26.5625 -54.890625 L 27.5625 -54.734375 L 28.1875 -54.578125 L 29.1875 -54.578125 L 30.5 -54.34375 L 31.046875 -54.125 L 32.359375 -53.578125 L 33.453125 -53.1875 L 34.375 -52.421875 L 35.453125 -51.328125 L 35.6875 -50.859375 L 35.921875 -50.5625 L 36.078125 -49.859375 L 36.390625 -49.015625 L 36.46875 -48.15625 L 36.546875 -47.15625 L 36.546875 -44.125 L 36.46875 -43.125 L 36.46875 -42.265625 L 36.390625 -41.34375 L 36.390625 -40.796875 L 36.234375 -39.875 L 36.15625 -38.9375 L 36.078125 -38.25 L 35.921875 -37.078125 L 35.453125 -36.078125 L 34.765625 -35.609375 L 33.21875 -35.53125 L 31.890625 -35.609375 L 30.65625 -35.53125 L 29.890625 -35.609375 L 27.71875 -35.609375 L 26.859375 -35.6875 L 26.09375 -36 L 26.015625 -36.625 L 26.09375 -37.46875 L 26.25 -38.71875 L 26.40625 -39.71875 L 26.5625 -40.265625 L 26.484375 -40.953125 L 26.703125 -42.34375 L 26.640625 -42.890625 L 26.5625 -43.75 L 26.484375 -44.203125 L 26.09375 -44.75 L 25.625 -45.21875 L 24.859375 -45.53125 L 23.15625 -45.53125 L 22.609375 -45.375 L 21.90625 -44.984375 L 21.296875 -44.359375 L 21.0625 -43.890625 L 20.75 -43.359375 L 20.515625 -42.8125 L 20.4375 -42.34375 L 19.96875 -41.5 L 19.515625 -40.484375 L 19.28125 -39.5625 L 19.203125 -38.9375 L 18.96875 -38.40625 L 18.96875 -37.859375 L 18.65625 -37.15625 L 18.578125 -36.703125 L 18.421875 -36.15625 L 18.265625 -35.234375 L 17.96875 -34.609375 L 17.890625 -34.0625 L 17.734375 -33.0625 L 17.5 -32.515625 L 17.34375 -31.75 L 17.265625 -31.046875 L 17.03125 -30.34375 L 16.796875 -29.34375 L 16.71875 -28.484375 L 16.40625 -27.015625 L 16.1875 -26.015625 L 16.03125 -25.46875 L 15.953125 -24.46875 L 15.796875 -24 L 15.71875 -22.921875 L 15.71875 -22.375 L 15.484375 -21.59375 L 15.25 -20.75 L 15.25 -19.890625 L 15.171875 -18.8125 L 15.09375 -17.8125 L 15.015625 -17.265625 L 14.9375 -16.796875 L 14.859375 -15.796875 L 14.78125 -14.703125 L 14.78125 -13.546875 L 14.859375 -12.78125 L 14.859375 -12 L 15.328125 -11.296875 L 15.640625 -10.765625 L 15.875 -10.53125 L 16.640625 -10.140625 L 18.109375 -9.90625 L 19.59375 -9.90625 L 20.515625 -10.21875 L 21.375 -10.765625 L 21.90625 -11.453125 L 22.21875 -12.15625 L 22.609375 -13.078125 L 22.84375 -13.78125 L 23.078125 -14.5625 L 23.53125 -16.34375 L 23.921875 -19.359375 L 23.765625 -19.75 L 23.234375 -19.8125 L 21.453125 -19.8125 L 20.984375 -20.28125 L 20.984375 -21.21875 L 21.375 -23.296875 L 21.59375 -25.15625 L 21.75 -25.9375 L 21.828125 -26.5625 L 22.21875 -28.265625 L 22.296875 -28.5625 L 22.6875 -29.03125 L 24.546875 -29.109375 L 25.15625 -29.03125 L 26.40625 -29.109375 L 27.640625 -29.03125 L 30.421875 -29.03125 L 30.96875 -29.109375 L 32.046875 -29.03125 L 33.671875 -29.03125 L 34.609375 -28.640625 L 34.609375 -26.703125 L 34.453125 -25.703125 L 34.453125 -25.078125 L 34.296875 -24.15625 L 34.21875 -23.53125 L 34.140625 -23.078125 L 34.0625 -22.53125 L 34.0625 -22.0625 L 33.828125 -21.0625 L 33.671875 -20.59375 L 33.75 -20.046875 L 33.59375 -19.59375 L 33.453125 -18.578125 L 33.375 -18.046875 L 33.140625 -17.109375 L 33.0625 -16.5625 L 32.90625 -15.640625 L 32.75 -14.78125 L 32.59375 -13.546875 L 32.28125 -12.46875 L 32.046875 -11.921875 L 31.890625 -10.453125 L 31.671875 -10.0625 L 31.515625 -9.453125 L 31.28125 -8.75 L 30.890625 -7.75 L 30.578125 -7.203125 L 30.421875 -6.734375 L 30.265625 -6.1875 L 29.734375 -5.03125 L 29.421875 -4.484375 L 28.71875 -3.484375 L 27.796875 -2.328125 L 26.859375 -1.703125 L 26.40625 -1.46875 L 25.78125 -1 L 24.78125 -0.546875 L 23.609375 -0.078125 L 21.984375 0.15625 L 21.59375 0.234375 L 20.515625 0.46875 L 19.28125 0.703125 L 17.578125 0.703125 Z M 16.796875 0.78125 "/></g></g></g><g fill="#000000" fill-opacity="1"><g transform="translate(387.473047, 80.941842)"><g><path d="M 11.375 0.078125 L 9.90625 0 L 7.890625 0 L 7.359375 -0.078125 L 3.25 -0.078125 L 2.5625 -0.234375 L 2.328125 -0.921875 L 2.5625 -1.625 L 2.703125 -2.328125 L 2.859375 -3.484375 L 3.015625 -4.71875 L 3.328125 -5.890625 L 3.40625 -7.125 L 3.640625 -7.75 L 3.640625 -8.4375 L 3.796875 -8.984375 L 3.796875 -9.515625 L 3.953125 -10.140625 L 4.03125 -10.6875 L 4.109375 -11.765625 L 4.265625 -12.78125 L 4.5625 -13.390625 L 4.71875 -14.625 L 4.71875 -15.171875 L 4.875 -15.796875 L 5.03125 -16.796875 L 5.03125 -17.1875 L 5.34375 -18.109375 L 5.265625 -18.578125 L 5.5 -19.59375 L 5.734375 -20.125 L 5.8125 -20.671875 L 6.03125 -21.828125 L 6.1875 -22.375 L 6.5 -24 L 6.5 -25.15625 L 6.8125 -26.25 L 6.96875 -27.40625 L 7.203125 -27.953125 L 7.28125 -28.5625 L 7.359375 -29.109375 L 7.359375 -29.65625 L 7.671875 -30.109375 L 8.125 -32.4375 L 8.359375 -33.0625 L 8.515625 -33.59375 L 8.4375 -34.0625 L 8.671875 -35.15625 L 8.984375 -36.3125 L 9.0625 -38.484375 L 9.296875 -39.015625 L 9.375 -40.640625 L 9.671875 -41.109375 L 9.828125 -41.734375 L 9.90625 -42.265625 L 9.828125 -42.734375 L 9.90625 -43.28125 L 10.21875 -44.28125 L 10.375 -45.375 L 10.609375 -45.828125 L 10.609375 -46.375 L 10.84375 -46.921875 L 10.765625 -47.375 L 10.921875 -47.921875 L 11 -48.9375 L 11.15625 -49.390625 L 11.21875 -49.859375 L 11.296875 -50.859375 L 11.375 -51.328125 L 11.21875 -51.875 L 11.453125 -52.796875 L 11.6875 -53.265625 L 11.765625 -53.734375 L 12.390625 -54.203125 L 13.703125 -54.203125 L 14.171875 -54.265625 L 14.703125 -54.203125 L 15.640625 -54.265625 L 16.1875 -54.265625 L 16.796875 -54.203125 L 17.578125 -54.203125 L 19.28125 -54.265625 L 25.078125 -54.34375 L 26.859375 -54.265625 L 27.484375 -54.203125 L 29.734375 -54.265625 L 31.4375 -54.265625 L 32.125 -54.34375 L 32.90625 -54.265625 L 33.59375 -54.203125 L 33.984375 -53.65625 L 33.75 -52.796875 L 33.75 -52.34375 L 33.59375 -50.40625 L 33.59375 -49.9375 L 33.375 -49.390625 L 33.296875 -48.859375 L 33.21875 -48.390625 L 32.984375 -47.234375 L 32.984375 -46.609375 L 32.671875 -45.53125 L 32.59375 -45.0625 L 32.359375 -44.046875 L 31.59375 -43.96875 L 28.34375 -43.96875 L 27.40625 -43.890625 L 22.375 -43.890625 L 20.515625 -43.828125 L 20.28125 -42.890625 L 20.203125 -42.34375 L 20.203125 -41.265625 L 19.96875 -40.796875 L 19.96875 -40.1875 L 19.75 -38.71875 L 19.59375 -37.625 L 19.359375 -36.546875 L 19.203125 -36 L 19.28125 -35.375 L 19.046875 -34.609375 L 18.890625 -33.21875 L 20.28125 -33.21875 L 23 -33.140625 L 24.46875 -33.296875 L 26.484375 -33.296875 L 27.09375 -33.140625 L 27.5625 -32.515625 L 27.40625 -31.59375 L 27.40625 -30.96875 L 27.25 -30.109375 L 27.015625 -29.03125 L 26.859375 -28.484375 L 26.640625 -27.328125 L 26.640625 -26.78125 L 26.40625 -26.171875 L 26.25 -25.078125 L 26.015625 -23.84375 L 25.859375 -22.765625 L 25.703125 -22.609375 L 24.9375 -22.609375 L 23.765625 -22.53125 L 23.078125 -22.53125 L 21.140625 -22.453125 L 19.8125 -22.53125 L 18.96875 -22.53125 L 17.96875 -22.453125 L 17.265625 -22.453125 L 16.953125 -21.59375 L 16.71875 -20.59375 L 16.40625 -18.421875 L 16.1875 -17.65625 L 16.03125 -16.953125 L 15.953125 -16.1875 L 15.796875 -15.640625 L 15.5625 -14.25 L 15.25 -12.234375 L 15.25 -11.609375 L 15.5625 -11.296875 L 16.640625 -11.15625 L 21.21875 -11.15625 L 22.296875 -11.078125 L 24 -11 L 26.171875 -11.078125 L 26.703125 -10.84375 L 26.640625 -10.21875 L 26.5625 -9.90625 L 26.40625 -9.0625 L 26.328125 -8.4375 L 26.015625 -6.734375 L 26.015625 -5.734375 L 25.859375 -5.1875 L 25.703125 -4.71875 L 25.625 -4.1875 L 25.390625 -3.015625 L 25.3125 -1.703125 L 25.15625 -1 L 24.9375 -0.15625 L 17.578125 -0.15625 L 16.34375 -0.078125 L 15.328125 -0.15625 L 14.859375 -0.078125 L 13.234375 -0.078125 L 12 0 Z M 11.375 0.078125 "/></g></g></g><g fill="#000000" fill-opacity="1"><g transform="translate(416.660388, 80.941842)"><g><path d="M 3.953125 0.15625 L 2.78125 0 L 2.40625 -0.921875 L 2.5625 -1.546875 L 2.5625 -2.78125 L 2.703125 -4.03125 L 3.015625 -5.109375 L 3.09375 -5.65625 L 3.328125 -6.734375 L 3.484375 -7.125 L 3.71875 -8.203125 L 3.875 -8.90625 L 4.109375 -10.140625 L 4.109375 -10.6875 L 4.265625 -11.296875 L 4.265625 -12.3125 L 4.5625 -12.859375 L 4.640625 -13.78125 L 4.71875 -14.328125 L 4.953125 -15.25 L 5.03125 -15.71875 L 4.953125 -16.265625 L 5.109375 -17.265625 L 5.421875 -18.5 L 5.578125 -19.4375 L 5.734375 -20.125 L 5.96875 -20.984375 L 6.109375 -21.90625 L 6.1875 -22.453125 L 6.34375 -22.921875 L 6.421875 -23.921875 L 6.5 -24.390625 L 6.5 -24.859375 L 6.890625 -25.78125 L 6.96875 -26.25 L 7.046875 -26.78125 L 7.125 -27.875 L 7.203125 -28.640625 L 7.59375 -29.578125 L 7.75 -30.1875 L 7.890625 -30.96875 L 7.890625 -32.046875 L 7.96875 -32.671875 L 8.203125 -33.296875 L 8.203125 -33.90625 L 8.4375 -34.453125 L 8.4375 -35 L 8.59375 -35.53125 L 8.75 -36.546875 L 8.984375 -37.390625 L 9.21875 -38.09375 L 9.21875 -39.015625 L 9.296875 -39.5625 L 9.453125 -40.03125 L 9.828125 -42.1875 L 9.828125 -42.734375 L 10.140625 -43.4375 L 10.296875 -44.125 L 10.375 -45.140625 L 10.453125 -45.671875 L 10.53125 -46.140625 L 10.609375 -46.6875 L 10.765625 -47.15625 L 10.84375 -47.6875 L 11 -48.703125 L 11.15625 -49.625 L 11.375 -50.640625 L 11.375 -51.25 L 11.609375 -52.265625 L 11.765625 -52.71875 L 12 -53.109375 L 12.46875 -53.96875 L 13.234375 -54.125 L 14.328125 -54.203125 L 15.640625 -54.125 L 16.34375 -54.125 L 17.34375 -54.203125 L 18.8125 -54.125 L 19.75 -54.203125 L 20.90625 -54.125 L 21.984375 -54.125 L 22.84375 -53.890625 L 23.296875 -53.1875 L 23.375 -52.640625 L 23.6875 -51.875 L 23.84375 -50.9375 L 23.921875 -50.09375 L 24.234375 -49.015625 L 24.546875 -47.15625 L 24.78125 -45.90625 L 25 -44.59375 L 25.234375 -43.515625 L 25.546875 -41.96875 L 25.703125 -41.34375 L 25.78125 -40.796875 L 25.9375 -39.640625 L 26.171875 -38.640625 L 26.171875 -38.171875 L 26.40625 -37.3125 L 26.40625 -36.78125 L 26.484375 -35.921875 L 26.703125 -34.765625 L 26.859375 -33.453125 L 27.09375 -32.125 L 27.171875 -30.890625 L 27.328125 -29.8125 L 27.484375 -29.1875 L 27.71875 -27.09375 L 28.03125 -25.3125 L 28.1875 -23.609375 L 28.1875 -23.078125 L 28.34375 -22.53125 L 28.484375 -21.59375 L 28.71875 -19.515625 L 28.953125 -17.8125 L 29.1875 -17.8125 L 29.265625 -19.359375 L 29.421875 -21.21875 L 29.421875 -22.296875 L 29.65625 -26.015625 L 29.890625 -27.640625 L 29.890625 -30.265625 L 30.109375 -31.359375 L 30.1875 -31.828125 L 30.265625 -32.359375 L 30.34375 -32.984375 L 30.421875 -34.0625 L 30.578125 -34.53125 L 30.734375 -35.609375 L 30.734375 -36.078125 L 31.046875 -37.078125 L 31.046875 -38.015625 L 31.125 -38.9375 L 31.125 -39.484375 L 31.59375 -40.421875 L 31.515625 -40.953125 L 31.75 -42.34375 L 31.75 -42.8125 L 31.96875 -43.828125 L 32.046875 -44.359375 L 32.203125 -44.828125 L 32.359375 -45.90625 L 32.4375 -46.53125 L 32.671875 -47.609375 L 32.828125 -48.15625 L 33.0625 -48.78125 L 33.0625 -49.46875 L 33.140625 -49.9375 L 33.375 -51.171875 L 33.671875 -52.796875 L 34.296875 -53.890625 L 34.609375 -54.125 L 36.078125 -54.421875 L 37.703125 -54.265625 L 38.25 -54.34375 L 39.015625 -54.34375 L 40.796875 -54.265625 L 41.578125 -54.265625 L 42.65625 -54.34375 L 43.75 -54.125 L 44.203125 -53.890625 L 44.28125 -53.265625 L 44.28125 -52.640625 L 44.046875 -51.5625 L 44.125 -50.9375 L 43.890625 -49.234375 L 43.75 -48.15625 L 43.28125 -46.296875 L 43.046875 -45.453125 L 42.8125 -44.046875 L 42.65625 -43.4375 L 42.421875 -41.8125 L 42.125 -40.5625 L 41.96875 -39.328125 L 41.734375 -38.640625 L 41.578125 -38.015625 L 41.421875 -37.46875 L 41.421875 -36.46875 L 41.265625 -35.921875 L 40.953125 -33.59375 L 40.71875 -32.90625 L 40.640625 -32.046875 L 40.5625 -31.515625 L 40.421875 -30.890625 L 40.1875 -29.890625 L 40.03125 -29.34375 L 39.796875 -28.34375 L 39.640625 -27.25 L 39.484375 -26.640625 L 39.5625 -25.9375 L 39.40625 -25.46875 L 39.328125 -24.9375 L 39.171875 -24.46875 L 39.09375 -23.921875 L 39.015625 -23.453125 L 39.015625 -22.453125 L 38.78125 -21.984375 L 38.5625 -20.90625 L 38.40625 -20.203125 L 38.328125 -19.515625 L 38.25 -19.046875 L 38.171875 -18.5 L 38.09375 -18.046875 L 38.09375 -17.578125 L 37.78125 -16.484375 L 37.625 -15.40625 L 37.46875 -14.625 L 37.15625 -13.9375 L 36.859375 -13 L 36.78125 -12.15625 L 36.703125 -11.15625 L 36.546875 -10.140625 L 36.3125 -9.515625 L 36 -8.4375 L 36 -7.203125 L 35.609375 -6.1875 L 35.609375 -5.734375 L 35.453125 -5.1875 L 35.234375 -4.1875 L 34.84375 -1.703125 L 34.140625 -0.78125 L 33.375 -0.234375 L 32.28125 -0.15625 L 31.4375 0 L 31.125 0 L 29.65625 -0.078125 L 29.109375 0 L 28.34375 -0.078125 L 27.875 0 L 26.328125 0 L 25.3125 -0.078125 L 24 -0.078125 L 23.375 -0.625 L 22.765625 -1.859375 L 22.375 -2.9375 L 22.296875 -3.328125 L 22.21875 -4.265625 L 22.140625 -4.71875 L 21.984375 -6.34375 L 21.90625 -6.8125 L 21.59375 -8.4375 L 21.515625 -8.90625 L 21.375 -9.984375 L 21.296875 -11.15625 L 21.0625 -12 L 20.828125 -13.15625 L 20.828125 -13.625 L 20.59375 -14.703125 L 20.515625 -15.171875 L 20.28125 -16.265625 L 20.203125 -16.71875 L 20.203125 -17.890625 L 19.890625 -19.4375 L 19.75 -20.90625 L 19.4375 -23.078125 L 19.046875 -25.546875 L 18.8125 -27.71875 L 18.34375 -30.5 L 17.890625 -33.453125 L 17.65625 -33.453125 L 17.578125 -31.28125 L 17.5 -29.734375 L 17.421875 -28.875 L 17.265625 -27.5625 L 17.1875 -25.625 L 16.640625 -21.90625 L 16.34375 -18.890625 L 16.1875 -18.421875 L 15.953125 -17.421875 L 16.109375 -16.875 L 15.875 -15.953125 L 15.71875 -15.40625 L 15.796875 -14.859375 L 15.71875 -14.40625 L 15.5625 -13.3125 L 15.25 -12.15625 L 14.9375 -10.609375 L 14.78125 -9.515625 L 14.703125 -9.0625 L 14.5625 -8.515625 L 14.25 -6.265625 L 14.015625 -5.265625 L 13.9375 -4.71875 L 13.9375 -3.71875 L 13.78125 -3.25 L 13.546875 -1.859375 L 13.234375 -0.921875 L 13 -0.15625 L 12.15625 0.15625 Z M 3.953125 0.15625 "/></g></g></g><g fill="#000000" fill-opacity="1"><g transform="translate(458.389795, 80.941842)"><g><path d="M 16.40625 0.15625 L 14.625 0.078125 L 13.625 0 L 12.625 0.078125 L 11.453125 -0.078125 L 10.53125 0 L 9.90625 -0.078125 L 9.21875 -0.078125 L 8.125 -0.234375 L 7.671875 -0.3125 L 7.046875 -0.3125 L 6.5 -0.234375 L 4.1875 -0.234375 L 3.09375 -0.390625 L 2.484375 -0.546875 L 2.484375 -2.328125 L 2.5625 -3.015625 L 2.9375 -3.953125 L 3.09375 -5.03125 L 3.171875 -5.5 L 3.40625 -6.578125 L 3.5625 -7.359375 L 3.71875 -7.96875 L 3.71875 -8.59375 L 3.875 -9.671875 L 3.953125 -10.296875 L 4.109375 -11.15625 L 4.40625 -11.765625 L 4.5625 -12.546875 L 4.5625 -13.15625 L 4.796875 -14.25 L 4.953125 -14.859375 L 5.03125 -15.875 L 5.109375 -16.34375 L 5.421875 -16.875 L 5.421875 -18.578125 L 5.65625 -19.671875 L 5.734375 -20.28125 L 5.96875 -21.375 L 6.03125 -21.90625 L 6.1875 -22.921875 L 6.34375 -23.453125 L 6.578125 -24.390625 L 6.65625 -24.859375 L 6.96875 -25.78125 L 6.96875 -27.328125 L 7.125 -27.875 L 7.28125 -28.34375 L 7.515625 -29.421875 L 7.671875 -29.890625 L 8.046875 -32.046875 L 8.28125 -32.59375 L 8.4375 -33.140625 L 8.515625 -33.671875 L 8.515625 -34.140625 L 8.59375 -34.6875 L 8.75 -35.609375 L 8.828125 -36.15625 L 9.0625 -37.078125 L 9.0625 -37.546875 L 9.21875 -38.484375 L 9.515625 -39.40625 L 9.515625 -40.484375 L 9.59375 -41.109375 L 9.75 -42.734375 L 9.90625 -43.671875 L 10.296875 -45.0625 L 10.453125 -45.59375 L 10.453125 -46.0625 L 10.53125 -46.609375 L 10.765625 -47.609375 L 10.921875 -48.703125 L 11.078125 -49.625 L 11.296875 -50.09375 L 11.375 -50.640625 L 11.453125 -51.5625 L 11.609375 -52.109375 L 11.84375 -52.875 L 12 -53.109375 L 12.234375 -53.96875 L 13 -54.203125 L 13.546875 -54.203125 L 14.484375 -54.125 L 15.015625 -54.046875 L 16.265625 -54.203125 L 16.875 -54.203125 L 18.578125 -54.125 L 20.125 -54.203125 L 22.0625 -54.203125 L 22.921875 -54.125 L 23.375 -54.203125 L 24.625 -54.203125 L 25.234375 -54.125 L 25.9375 -54.046875 L 27.09375 -53.890625 L 27.640625 -53.890625 L 28.265625 -53.65625 L 29.34375 -53.34375 L 29.5 -53.34375 L 29.96875 -53.1875 L 31.28125 -52.796875 L 31.671875 -52.5625 L 31.96875 -52.421875 L 32.75 -51.953125 L 33.296875 -51.5625 L 33.75 -51.171875 L 34.921875 -49.625 L 35.53125 -48.703125 L 35.84375 -48.3125 L 36.234375 -47.609375 L 36.546875 -46.53125 L 37 -45.375 L 37.3125 -44.828125 L 37.546875 -43.515625 L 37.546875 -42.96875 L 37.9375 -41.890625 L 37.859375 -41.34375 L 38.015625 -39.796875 L 38.09375 -38.78125 L 37.859375 -38.328125 L 38.09375 -37.234375 L 38.171875 -36.78125 L 38.09375 -36.234375 L 38.25 -35.6875 L 38.171875 -35.15625 L 38.171875 -34.6875 L 37.9375 -33.453125 L 37.9375 -32.90625 L 37.78125 -31.59375 L 37.703125 -31.046875 L 37.703125 -28.875 L 37.3125 -27.640625 L 37.3125 -27.09375 L 37 -25.625 L 36.859375 -24.46875 L 36.703125 -22.6875 L 36.546875 -22.0625 L 36.3125 -21.453125 L 36.234375 -20.671875 L 35.765625 -19.046875 L 35.6875 -18.046875 L 35.53125 -17.109375 L 35.296875 -16.5625 L 34.765625 -15.5625 L 34.609375 -15.09375 L 34.53125 -14.25 L 34.0625 -13.234375 L 33.984375 -12.78125 L 33.671875 -11.6875 L 33.140625 -10.609375 L 32.59375 -9.0625 L 32.203125 -8.28125 L 31.59375 -7.671875 L 31.515625 -7.203125 L 31.125 -6.65625 L 30.734375 -6.1875 L 30.1875 -5.265625 L 29.109375 -3.953125 L 28.03125 -3.09375 L 27.328125 -2.484375 L 26.859375 -2.171875 L 25.859375 -1.703125 L 25 -1.46875 L 24.234375 -0.921875 L 23.15625 -0.625 L 22.375 -0.46875 L 21.140625 -0.3125 L 20.28125 0 L 17.890625 0 L 17.34375 0.078125 L 16.953125 0.078125 Z M 16.109375 -10.375 L 18.421875 -10.375 L 19.203125 -10.609375 L 19.8125 -10.921875 L 20.671875 -11.375 L 21.0625 -11.6875 L 21.671875 -12.3125 L 22.21875 -12.921875 L 22.453125 -13.390625 L 22.765625 -13.9375 L 23.078125 -14.703125 L 23.453125 -15.484375 L 23.84375 -16.484375 L 24.3125 -17.96875 L 24.546875 -18.8125 L 24.78125 -19.890625 L 25.078125 -20.90625 L 25.15625 -21.375 L 25.3125 -21.75 L 25.46875 -22.21875 L 25.703125 -23.15625 L 25.78125 -23.6875 L 25.9375 -24.703125 L 26.09375 -25.78125 L 26.25 -26.9375 L 26.328125 -27.484375 L 26.484375 -28.109375 L 26.859375 -29.1875 L 26.859375 -30.265625 L 27.09375 -31.890625 L 27.171875 -32.359375 L 27.328125 -33.984375 L 27.25 -35.609375 L 27.328125 -37.859375 L 27.171875 -39.953125 L 27.09375 -40.5625 L 26.640625 -41.890625 L 26.09375 -42.890625 L 25.625 -43.28125 L 25.234375 -43.59375 L 23.921875 -43.96875 L 22.6875 -44.125 L 21.671875 -44.203125 L 20.984375 -44.125 L 20.75 -43.515625 L 20.515625 -42.96875 L 20.515625 -42.5 L 20.359375 -41.96875 L 20.125 -40.796875 L 19.8125 -39.71875 L 19.671875 -38.71875 L 19.515625 -37.625 L 19.359375 -35.921875 L 19.28125 -35.453125 L 19.125 -34.921875 L 19.125 -34.375 L 19.046875 -33.75 L 18.8125 -33.296875 L 18.8125 -32.828125 L 18.578125 -31.75 L 18.421875 -30.5 L 18.421875 -29.96875 L 18.1875 -28.875 L 18.046875 -28.40625 L 17.8125 -27.328125 L 17.8125 -26.859375 L 17.578125 -25.78125 L 17.421875 -25.234375 L 17.5 -24.78125 L 17.34375 -24.234375 L 17.03125 -22.21875 L 17.03125 -21.21875 L 16.953125 -20.75 L 16.5625 -19.671875 L 16.5625 -19.203125 L 16.34375 -18.046875 L 16.03125 -16.640625 L 15.953125 -16.109375 L 15.640625 -15.015625 L 15.484375 -13.859375 L 15.40625 -12.703125 L 15.171875 -11.375 L 15.015625 -10.6875 Z M 16.109375 -10.375 "/></g></g></g><g fill="#000000" fill-opacity="1"><g transform="translate(496.015915, 80.941842)"><g><path d="M 15.328125 1 L 13.46875 0.859375 L 12.921875 0.78125 L 12.15625 0.78125 L 11.296875 0.625 L 10.53125 0.46875 L 9.984375 0.3125 L 8.75 -0.234375 L 7.890625 -0.546875 L 7.125 -1.078125 L 6.1875 -1.703125 L 5.421875 -2.703125 L 4.640625 -3.640625 L 3.953125 -4.71875 L 3.40625 -6.03125 L 3.25 -6.65625 L 2.703125 -8.046875 L 2.625 -8.515625 L 2.40625 -9.59375 L 2.328125 -10.0625 L 2.171875 -11.296875 L 2.171875 -13.625 L 2.25 -14.9375 L 2.171875 -15.484375 L 2.328125 -16.640625 L 2.40625 -17.265625 L 2.5625 -17.8125 L 2.78125 -19.046875 L 3.875 -19.59375 L 5.734375 -19.75 L 6.65625 -19.671875 L 11 -19.671875 L 12 -19.59375 L 12.625 -18.5 L 12.625 -15.640625 L 12.546875 -15.09375 L 12.546875 -13.46875 L 12.703125 -11.765625 L 12.921875 -11 L 13.46875 -9.828125 L 14.25 -9.0625 L 15.25 -8.828125 L 15.953125 -8.828125 L 16.5625 -8.984375 L 17.421875 -9.21875 L 17.8125 -9.59375 L 18.1875 -10.296875 L 18.5 -10.84375 L 18.8125 -11.765625 L 18.96875 -12.703125 L 19.046875 -13.46875 L 19.046875 -14.015625 L 18.96875 -15.09375 L 18.96875 -16.34375 L 18.65625 -17.734375 L 18.65625 -18.1875 L 18.421875 -19.359375 L 17.8125 -20.4375 L 17.1875 -21.375 L 16.640625 -22.453125 L 16.34375 -22.921875 L 16.1875 -23.296875 L 15.953125 -23.6875 L 15.40625 -24.234375 L 15.015625 -24.859375 L 14.171875 -25.859375 L 13.78125 -26.25 L 13.46875 -26.703125 L 12.625 -27.71875 L 11.6875 -28.71875 L 11 -29.734375 L 10.21875 -30.578125 L 9.453125 -31.203125 L 9.0625 -31.75 L 8.59375 -32.515625 L 8.125 -33.671875 L 7.8125 -34.375 L 7.4375 -34.921875 L 7.203125 -35.453125 L 7.046875 -36.078125 L 6.734375 -37.078125 L 6.65625 -38.09375 L 6.578125 -38.71875 L 6.65625 -39.25 L 6.65625 -41.5 L 6.8125 -43.046875 L 7.046875 -43.59375 L 7.125 -44.671875 L 7.4375 -45.21875 L 7.671875 -45.984375 L 7.75 -46.765625 L 8.203125 -47.765625 L 8.515625 -48.390625 L 8.75 -48.9375 L 8.984375 -49.3125 L 9.59375 -50.015625 L 9.828125 -50.328125 L 10.296875 -51.09375 L 10.765625 -51.5625 L 11.6875 -52.34375 L 13.078125 -53.34375 L 14.328125 -53.8125 L 15.171875 -54.265625 L 16.640625 -54.578125 L 17.96875 -54.96875 L 20.359375 -54.96875 L 22.296875 -54.890625 L 22.84375 -54.890625 L 23.53125 -54.734375 L 24.703125 -54.65625 L 26.015625 -54.265625 L 26.5625 -54.203125 L 26.859375 -53.96875 L 27.796875 -53.5 L 28.34375 -53.03125 L 28.953125 -52.796875 L 29.8125 -52.03125 L 30.046875 -51.71875 L 30.8125 -50.859375 L 31.046875 -50.484375 L 31.59375 -49.625 L 31.890625 -49.15625 L 32.046875 -48.3125 L 32.28125 -47.765625 L 32.75 -45.90625 L 32.75 -44.203125 L 32.828125 -42.65625 L 32.75 -41.34375 L 32.4375 -39.171875 L 32.125 -37.46875 L 31.203125 -37 L 29.8125 -36.9375 L 25.46875 -36.9375 L 24.390625 -37 L 23.296875 -37 L 22.6875 -37.546875 L 22.609375 -38.5625 L 22.765625 -39.171875 L 23 -41.578125 L 23 -43.359375 L 22.84375 -44.28125 L 22.609375 -44.75 L 21.90625 -45.453125 L 21.140625 -46.0625 L 20.125 -46.21875 L 19.203125 -45.90625 L 18.34375 -45.53125 L 17.96875 -44.984375 L 17.734375 -44.4375 L 17.421875 -43.671875 L 17.34375 -43.125 L 17.109375 -42.34375 L 17.03125 -41.265625 L 17.03125 -40.265625 L 17.109375 -39.71875 L 17.65625 -38.25 L 18.265625 -37.15625 L 18.578125 -36.546875 L 19.125 -35.53125 L 19.96875 -34.453125 L 20.984375 -33.21875 L 21.296875 -32.75 L 21.671875 -32.359375 L 21.984375 -31.75 L 22.296875 -31.359375 L 22.765625 -31.046875 L 23.53125 -30.421875 L 23.765625 -29.96875 L 24.15625 -29.734375 L 24.390625 -29.34375 L 25.078125 -28.5625 L 25.46875 -27.875 L 26.40625 -26.9375 L 26.9375 -25.625 L 27.640625 -24.78125 L 27.71875 -24.390625 L 28.34375 -22.84375 L 28.796875 -21.828125 L 29.265625 -20.203125 L 29.34375 -19.671875 L 29.421875 -19.046875 L 29.5 -18.5 L 29.890625 -17.1875 L 30.046875 -16.71875 L 29.96875 -15.640625 L 29.890625 -15.171875 L 29.96875 -14.625 L 29.890625 -14.09375 L 29.890625 -11.921875 L 29.65625 -10.84375 L 29.578125 -10.375 L 29.578125 -9.21875 L 29.265625 -8.203125 L 29.109375 -7.59375 L 28.953125 -6.890625 L 28.5625 -5.8125 L 27.875 -4.484375 L 27.40625 -4.1875 L 27.015625 -3.40625 L 26.640625 -3.09375 L 26.015625 -2.40625 L 25.625 -2.09375 L 25 -1.546875 L 24.234375 -1.078125 L 23.53125 -0.546875 L 22.609375 -0.3125 L 22.140625 0 L 20.984375 0.390625 L 20.359375 0.46875 L 19.359375 0.78125 L 18.8125 0.859375 L 18.109375 0.78125 L 17.578125 0.859375 L 16.71875 0.859375 L 16.1875 0.921875 Z M 15.328125 1 "/></g></g></g></svg>